# AST/ASF file generated using VICON BodyLanguage
# -----------------------------------------------
:version 1.10
:name VICON
:units
  mass 1.0
  length 0.45
  angle deg
:documentation
   .ast/.asf automatically generated from VICON data using
   VICON BodyBuilder and BodyLanguage model FoxedUp or BRILLIANT.MOD
:root
   order TX TY TZ RX RY RZ
   axis XYZ
   position 0 0 0  
   orientation 0 0 0 
:bonedata
  begin
     id 1 
     name lhipjoint
     direction 0.602128 -0.715006 0.355257 
     length 2.21237 
     axis 0 0 0  XYZ
  end
  begin
     id 2 
     name lfemur
     direction 0.34202 -0.939693 0  
     length 6.71649  
     axis 0 0 20  XYZ
    dof rx ry rz
    limits (-160.0 20.0)
           (-70.0 70.0)
           (-60.0 70.0)
  end
  begin
     id 3 
     name ltibia
     direction 0.34202 -0.939693 0   
     length 6.97123   
     axis 0 0 20   XYZ
    dof rx
    limits (-10.0 170.0)
  end
  begin
     id 4 
     name lfoot
     direction 0.0655697 -0.180151 0.981451   
     length 1.80924   
     axis -90 7.62852e-016 20   XYZ
    dof rx rz
    limits (-45.0 90.0)
           (-70.0 20.0)
  end
  begin
     id 5 
     name ltoes
     direction 1.53545e-011 -4.21827e-011 1   
     length 0.916331   
     axis -90 7.62852e-016 20   XYZ
    dof rx
    limits (-90.0 20.0)
  end
  begin
     id 6 
     name rhipjoint
     direction -0.625414 -0.698792 0.347201   
     length 2.2637  
     axis 0 0 0  XYZ 
  end
  begin
     id 7 
     name rfemur
     direction -0.34202 -0.939693 0   
     length 7.07595   
     axis 0 0 -20   XYZ
    dof rx ry rz
    limits (-160.0 20.0)
           (-70.0 70.0)
           (-70.0 60.0)
  end
  begin
     id 8 
     name rtibia
     direction -0.34202 -0.939693 0   
     length 7.22924   
     axis 0 0 -20   XYZ
    dof rx
    limits (-10.0 170.0)
 end
 begin
     id 9 
     name rfoot
     direction -0.0766747 -0.210662 0.974547   
     length 1.98482  
     axis -90 -7.62852e-016 -20   XYZ
    dof rx rz
    limits (-45.0 90.0)
           (-20.0 70.0)
  end
  begin
     id 10 
     name rtoes
     direction -1.53532e-011 -4.21867e-011 1   
     length 0.999842   
     axis -90 -7.62852e-016 -20   XYZ
    dof rx
    limits (-90.0 20.0)
  end
  begin
     id 11 
     name lowerback
     direction -0.0224668 0.997354 -0.0691422   
     length 2.09945   
     axis 0 0 0   XYZ
    dof rx ry rz
    limits (-20.0 45.0)
           (-30.0 30.0)
           (-30.0 30.0)
  end
  begin
     id 12 
     name upperback
     direction 0.0134698 0.998451 -0.0539888   
     length 2.09758   
     axis 0 0 0   XYZ
    dof rx ry rz
    limits (-20.0 45.0)
           (-30.0 30.0)
           (-30.0 30.0)
  end
  begin
     id 13 
     name thorax
     direction 0.0241905 0.99948 -0.0213333   
     length 2.10428   
     axis 0 0 0   XYZ
    dof rx ry rz
    limits (-20.0 45.0)
           (-30.0 30.0)
           (-30.0 30.0)
  end
  begin
     id 14 
     name lowerneck
     direction -0.00866847 0.995978 0.0891737   
     length 1.3959   
     axis 0 0 0   XYZ
    dof rx ry rz
    limits (-20.0 45.0)
           (-30.0 30.0)
           (-30.0 30.0)
  end
  begin
     id 15 
     name upperneck
     direction 0.0680679 0.992203 0.104404   
     length 1.39452   
     axis 0 0 0   XYZ
    dof rx ry rz
    limits (-20.0 45.0)
           (-30.0 30.0)
           (-30.0 30.0)
  end
  begin
     id 16
     name head
     direction 0.0242216 0.999358 0.0264054  
     length 1.40433  
     axis 0 0 0   XYZ
    dof rx ry rz
    limits (-20.0 45.0)
           (-30.0 30.0)
           (-30.0 30.0)
  end
  begin
     id 17 
     name lclavicle
     direction 0.929368 0.362991 -0.0671771  
     length 3.04887  
     axis 0 0 0   XYZ
    dof ry rz
    limits (-20.0 10.0)
           (0.0 20.0)
  end
  begin
     id 18 
     name lhumerus
     direction 1 -4.48967e-011 -7.13741e-028   
     length 4.77195   
     axis -180 -30 -90   XYZ
    dof rx ry rz
    limits (-60.0 90.0)
           (-90.0 90.0)
           (-90.0 90.0)
  end
  begin
     id 19
     name lradius
     direction 1 -4.48977e-011 3.60404e-027   
     length 2.98444   
     axis -180 -30 -90   XYZ
    dof rx
    limits (-10.0 170.0)
  end
  begin
     id 20
     name lwrist
     direction 1 -4.48997e-011 7.54877e-027   
     length 1.49222   
     axis -7.18178e-015 90 90   XYZ
    dof ry
    limits (-180.0 0.0)
 end
  begin
     id 21 
     name lhand
     direction 1 -4.489e-011 1.51105e-026   
     length 0.992285   
     axis -9.63605e-015 90 90   XYZ
    dof rx rz
    limits (-90.0 90.0)
           (-45.0 45.0)
  end
  begin
     id 22 
     name lfingers
     direction 1 -4.48998e-011 3.01948e-026   
     length 0.800006   
     axis -1.92718e-014 90 90   XYZ
    dof rx
    limits (0.0 90.0)
  end
  begin
     id 23
     name lthumb
     direction 0.707107 -6.34881e-011 0.707107   
     length 1.14865   
     axis -90 45 -3.53137e-014   XYZ
    dof rx rz
    limits (-45.0 45.0)
           (-45.0 45.0)
  end
  begin
     id 24 
     name rclavicle
     direction -0.945672 0.324529 0.0196374   
     length 3.4236  
     axis 0 0 0   XYZ 
    dof ry rz
    limits (-10.0 20.0)
           (-20.0 0.0)
  end
  begin
     id 25 
     name rhumerus
     direction -1 -4.4896e-011 1.02757e-029  
     length 4.62052   
     axis -180 30 90   XYZ
    dof rx ry rz
    limits (-90.0 60.0)
           (-90.0 90.0)
           (-90.0 90.0)
  end
  begin
     id 26 
     name rradius
     direction -1 -4.48982e-011 3.85962e-027   
     length 2.95332   
     axis -180 30 90   XYZ
    dof rx
    limits (-10.0 170.0)
  end
  begin
     id 27 
     name rwrist
     direction -1 -4.48961e-011 7.55118e-027   
     length 1.47666   
     axis -7.18178e-015 -90 -90   XYZ
    dof ry
    limits (-180.0 0.0)
  end
  begin
     id 28
     name rhand
     direction -1 -4.48984e-011 1.50994e-026   
     length 0.990956   
     axis -9.63605e-015 -90 -90   XYZ
    dof rx rz
    limits (-90.0 90.0)
           (-45.0 45.0)
  end
  begin
     id 29
     name rfingers
     direction -1 -4.4892e-011 3.02158e-026   
     length 0.798934   
     axis -1.92718e-014 -90 -90   XYZ
    dof rx
    limits (0.0 90.0)
  end
  begin
     id 30
     name rthumb
     direction -0.707107 -6.34916e-011 0.707107   
     length 1.14711   
     axis -90 -45 3.53137e-014   XYZ
    dof rx rz
    limits (-45.0 45.0)
           (-45.0 45.0)
  end
:hierarchy
  begin
    root lhipjoint rhipjoint lowerback
    lhipjoint lfemur
    lfemur ltibia
    ltibia lfoot
    lfoot ltoes
    rhipjoint rfemur
    rfemur rtibia
    rtibia rfoot
    rfoot rtoes
    lowerback upperback
    upperback thorax
    thorax lowerneck lclavicle rclavicle
    lowerneck upperneck
    upperneck head
    lclavicle lhumerus
    lhumerus lradius
    lradius lwrist
    lwrist lhand lthumb
    lhand lfingers
    rclavicle rhumerus
    rhumerus rradius
    rradius rwrist
    rwrist rhand rthumb
    rhand rfingers
  end

#!OML:ASF H:\ManfredObstacles\Project 1\Capture day 1\Session 1\Male.ASF
:FULLY-SPECIFIED
:DEGREES
431
root -12.9353 16.7935 -14.3595 -170.365 -71.8636 -176.927
lowerback -12.5356 -2.93162 -2.69291
upperback 0.940172 -3.71473 2.32954
thorax 8.38668 -1.99288 3.27188
lowerneck -3.10034 -1.62157 -7.82682
upperneck -4.82597 -1.8151 12.8517
head -0.691413 -0.980906 5.15373
rclavicle -2.77305e-014 0
rhumerus -30.0644 -17.8074 -77.1168
rradius 29.4064
rwrist 27.4879
rhand -1.51313 -4.54079
rfingers 7.12502
rthumb 24.1403 -33.0419
lclavicle -2.77305e-014 0
lhumerus -20.1642 9.26729 94.2136
lradius 20.2452
lwrist -36.8301
lhand -7.85543 4.43955
lfingers 7.12502
lthumb 18.0479 33.6222
rfemur -29.6435 -7.79376 22.6885
rtibia 25.917
rfoot -8.53359 12.1551
rtoes 30.8576
lfemur 11.4225 -5.58264 -11.3227
ltibia -3.49861e-014
lfoot 17.6539 -7.60476
ltoes -8.13219
432
root -12.9586 16.8006 -14.3715 -170.265 -71.9127 -176.932
lowerback -12.5234 -2.8763 -2.52652
upperback 0.945488 -3.66654 2.32768
thorax 8.37002 -1.96192 3.18606
lowerneck -2.99145 -1.57583 -7.69261
upperneck -5.00938 -1.75108 12.7325
head -0.772719 -0.957642 5.09745
rclavicle 3.15074e-014 -2.5842e-015
rhumerus -30.1168 -17.7985 -77.2191
rradius 29.0426
rwrist 27.5576
rhand -1.19856 -4.5014
rfingers 7.12502
rthumb 24.4419 -32.9621
lclavicle 3.15074e-014 -2.5842e-015
lhumerus -20.2304 9.53799 94.0639
lradius 20.086
lwrist -37.3224
lhand -7.89675 4.20118
lfingers 7.12502
lthumb 18.0082 33.3875
rfemur -29.6807 -8.0584 22.769
rtibia 25.9266
rfoot -8.49346 12.4016
rtoes 31.0562
lfemur 11.3542 -5.55574 -11.3294
ltibia -3.18055e-014
lfoot 17.7883 -7.7181
ltoes -9.38678
433
root -12.9943 16.8056 -14.3782 -170.365 -71.7887 -176.834
lowerback -12.5688 -2.84663 -2.27735
upperback 1.00388 -3.66783 2.35731
thorax 8.44477 -1.95361 3.07385
lowerneck -2.85923 -1.44108 -7.48995
upperneck -5.21987 -1.5698 12.461
head -0.880688 -0.875822 4.98383
rclavicle 2.45499e-014 1.98785e-016
rhumerus -30.1097 -17.6255 -77.3337
rradius 28.628
rwrist 27.7531
rhand -0.853126 -4.47755
rfingers 7.12502
rthumb 24.773 -32.8932
lclavicle 2.45499e-014 1.98785e-016
lhumerus -20.0714 9.98971 93.9836
lradius 19.6435
lwrist -37.6471
lhand -7.99461 4.15083
lfingers 7.12502
lthumb 17.914 33.3458
rfemur -29.5408 -8.43862 22.8501
rtibia 25.8641
rfoot -8.21675 12.9445
rtoes 32.0739
lfemur 11.5641 -5.37313 -11.3914
ltibia -6.36111e-015
lfoot 17.8539 -7.68966
ltoes -9.78596
434
root -13.0012 16.812 -14.3972 -170.795 -72.0142 -176.29
lowerback -12.3855 -3.01284 -2.24407
upperback 0.974039 -3.91853 2.57829
thorax 8.34193 -2.08038 3.24829
lowerneck -2.94484 -1.26061 -7.45254
upperneck -5.22545 -1.3262 12.2176
head -0.896756 -0.748303 4.90353
rclavicle 2.90226e-014 -2.32578e-014
rhumerus -30.18 -17.6181 -77.3716
rradius 28.3505
rwrist 28.4425
rhand 0.0203814 -4.62841
rfingers 7.12502
rthumb 25.6099 -32.9264
lclavicle 2.90226e-014 -2.32578e-014
lhumerus -19.8925 11.7434 93.6785
lradius 19.0427
lwrist -39.0753
lhand -8.09715 4.16061
lfingers 7.12502
lthumb 17.8154 33.3646
rfemur -29.4888 -8.00067 22.9405
rtibia 25.7664
rfoot -8.34437 12.3649
rtoes 32.6373
lfemur 11.4312 -5.49899 -11.098
ltibia -6.36111e-015
lfoot 18.1003 -7.51978
ltoes -9.71775
435
root -12.9977 16.8177 -14.4155 -170.885 -72.1986 -176.076
lowerback -12.1974 -3.05151 -2.28536
upperback 0.94924 -3.96996 2.62273
thorax 8.21818 -2.10753 3.31715
lowerneck -3.06761 -1.19828 -7.24988
upperneck -5.17286 -1.24899 12.1516
head -0.871279 -0.709144 4.84825
rclavicle 2.73329e-015 -1.78906e-014
rhumerus -30.3697 -18.2584 -77.4078
rradius 28.0031
rwrist 29.3377
rhand 1.06701 -4.85075
rfingers 7.12502
rthumb 26.612 -33.0006
lclavicle 2.73329e-015 -1.78906e-014
lhumerus -19.9349 12.3479 93.2459
lradius 18.7343
lwrist -39.8271
lhand -7.98882 4.34689
lfingers 7.12502
lthumb 17.9196 33.5413
rfemur -29.4958 -7.34486 22.8924
rtibia 25.6654
rfoot -8.55814 11.5939
rtoes 32.9126
lfemur 11.197 -5.59557 -10.8862
ltibia -1.27222e-014
lfoot 18.399 -7.52286
ltoes -10.1651
436
root -13.0043 16.8207 -14.4279 -171.061 -72.2115 -175.841
lowerback -12.0799 -2.96208 -2.15891
upperback 0.930496 -3.86361 2.55181
thorax 8.10756 -2.04689 3.19642
lowerneck -2.99977 -1.1967 -7.02538
upperneck -5.21582 -1.25455 12.2024
head -0.895361 -0.721509 4.82675
rclavicle 4.45775e-014 -1.37161e-014
rhumerus -30.5315 -18.8707 -77.4372
rradius 27.4552
rwrist 29.971
rhand 0.843804 -4.87897
rfingers 7.12502
rthumb 26.3983 -33.0611
lclavicle 4.45775e-014 -1.37161e-014
lhumerus -20.014 15.2481 92.1864
lradius 17.9964
lwrist -43.1093
lhand -7.9243 3.97064
lfingers 7.12502
lthumb 17.9817 33.1594
rfemur -29.4281 -6.94191 22.8935
rtibia 25.5714
rfoot -8.6865 11.2088
rtoes 33.2037
lfemur 11.1624 -5.53492 -10.7544
ltibia 1.59028e-014
lfoot 18.5725 -7.80787
ltoes -11.6529
437
root -13.0141 16.8222 -14.4399 -170.937 -72.1355 -175.932
lowerback -11.984 -2.97157 -2.19725
upperback 0.919881 -3.87459 2.58452
thorax 8.04742 -2.05446 3.25502
lowerneck -2.99334 -1.13971 -7.31553
upperneck -5.28283 -1.16257 12.4615
head -0.919684 -0.676504 4.95715
rclavicle -2.31584e-014 3.22031e-014
rhumerus -30.5547 -19.0965 -77.3812
rradius 26.8757
rwrist 30.6571
rhand 0.173526 -4.7081
rfingers 7.12502
rthumb 25.7566 -32.9849
lclavicle -2.31584e-014 3.22031e-014
lhumerus -20.211 15.6266 91.8692
lradius 17.8293
lwrist -43.4149
lhand -7.89757 4.00963
lfingers 7.12502
lthumb 18.0074 33.196
rfemur -29.4096 -6.7865 22.8701
rtibia 25.5635
rfoot -8.8166 11.0807
rtoes 32.8916
lfemur 11.1654 -5.40121 -10.7842
ltibia -6.04305e-014
lfoot 18.6664 -8.31845
ltoes -14.4503
438
root -13.021 16.8249 -14.4489 -169.811 -72.0357 -176.964
lowerback -12.1234 -2.99807 -2.4259
upperback 0.998079 -3.86284 2.46495
thorax 8.2177 -2.05665 3.25157
lowerneck -3.00326 -1.08601 -7.30544
upperneck -5.4888 -1.07854 12.5309
head -0.985696 -0.642819 4.97932
rclavicle -1.47598e-014 -2.78299e-015
rhumerus -30.5076 -19.723 -77.4299
rradius 26.3413
rwrist 31.4823
rhand -0.19874 -4.63243
rfingers 7.12502
rthumb 25.4 -32.9604
lclavicle -1.47598e-014 -2.78299e-015
lhumerus -20.1106 16.2597 91.4458
lradius 17.4128
lwrist -44.0391
lhand -8.01856 4.01017
lfingers 7.12502
lthumb 17.891 33.2072
rfemur -29.5821 -6.85343 22.614
rtibia 25.6204
rfoot -8.90901 11.091
rtoes 32.149
lfemur 11.0097 -5.27101 -11.1225
ltibia -6.36111e-015
lfoot 18.8757 -8.73946
ltoes -16.401
439
root -13.0303 16.8302 -14.4497 -168.517 -71.8951 -178.077
lowerback -12.2082 -2.99007 -2.57842
upperback 0.872845 -3.80837 2.26004
thorax 8.1214 -2.02771 3.12851
lowerneck -2.78762 -1.00439 -6.85444
upperneck -5.49767 -0.991579 12.3389
head -1.03787 -0.6125 4.8452
rclavicle 3.04638e-014 -7.7526e-015
rhumerus -30.9687 -20.6055 -77.3806
rradius 26.0131
rwrist 32.3129
rhand -0.318497 -4.71739
rfingers 7.12502
rthumb 25.2853 -33.0616
lclavicle 3.04638e-014 -7.7526e-015
lhumerus -20.4277 16.0866 90.9845
lradius 17.1443
lwrist -43.8878
lhand -8.11005 4.28412
lfingers 7.12502
lthumb 17.803 33.4892
rfemur -29.8838 -7.06326 22.3432
rtibia 25.6991
rfoot -8.86625 11.3077
rtoes 31.3609
lfemur 10.7961 -5.10164 -11.488
ltibia 2.22639e-014
lfoot 19.1428 -9.05798
ltoes -17.1573
440
root -13.0505 16.834 -14.4465 -168.187 -71.6479 -178.246
lowerback -12.5669 -2.94105 -2.4918
upperback 0.937742 -3.7465 2.21533
thorax 8.38228 -1.99526 3.0282
lowerneck -2.8614 -0.955012 -6.78547
upperneck -5.46667 -0.928227 12.2265
head -1.02459 -0.577455 4.79847
rclavicle -4.32357e-015 -1.88845e-014
rhumerus -31.1854 -21.5678 -77.2045
rradius 25.7496
rwrist 33.4486
rhand -0.11331 -4.63155
rfingers 7.12502
rthumb 25.4818 -32.9479
lclavicle -4.32357e-015 -1.88845e-014
lhumerus -20.6119 16.0327 90.7074
lradius 17.101
lwrist -43.7553
lhand -7.98726 4.62636
lfingers 7.12502
lthumb 17.9211 33.8207
rfemur -30.06 -7.37999 22.3847
rtibia 25.7415
rfoot -8.73057 11.8409
rtoes 30.4987
lfemur 10.7743 -4.79334 -11.5794
ltibia 1.90833e-014
lfoot 19.3334 -9.3137
ltoes -17.5554
441
root -13.0516 16.8359 -14.4485 -167.711 -71.5318 -178.697
lowerback -12.5784 -2.96339 -2.6793
upperback 0.984651 -3.74932 2.23899
thorax 8.45472 -2.00695 3.15754
lowerneck -2.9761 -0.913904 -6.9625
upperneck -5.42306 -0.866293 12.1571
head -0.998816 -0.536247 4.80633
rclavicle -1.05356e-014 -9.93923e-015
rhumerus -31.2762 -22.1227 -77.0682
rradius 25.366
rwrist 34.2332
rhand -0.194623 -4.49289
rfingers 7.12502
rthumb 25.4039 -32.8203
lclavicle -1.05356e-014 -9.93923e-015
lhumerus -20.6917 16.54 90.3948
lradius 16.8112
lwrist -44.2965
lhand -7.89934 4.84459
lfingers 7.12502
lthumb 18.0057 34.0311
rfemur -30.1017 -7.28167 22.234
rtibia 25.7247
rfoot -8.79402 11.7642
rtoes 29.5124
lfemur 10.7146 -4.64881 -11.6587
ltibia -3.81667e-014
lfoot 19.7101 -9.40963
ltoes -17.124
442
root -13.0538 16.8376 -14.4453 -167.789 -71.367 -178.503
lowerback -12.568 -2.94309 -2.55505
upperback 0.928526 -3.74177 2.23859
thorax 8.37864 -1.99647 3.08992
lowerneck -2.83406 -0.829211 -6.81847
upperneck -5.41647 -0.762667 12.0183
head -1.03272 -0.488384 4.74011
rclavicle -8.39368e-014 2.26615e-014
rhumerus -31.456 -22.2928 -77.1141
rradius 24.9697
rwrist 34.5313
rhand -0.208963 -4.46833
rfingers 7.12502
rthumb 25.3902 -32.7977
lclavicle -8.39368e-014 2.26615e-014
lhumerus -20.9669 18.8982 89.4548
lradius 16.2461
lwrist -46.7086
lhand -8.00694 4.64487
lfingers 7.12502
lthumb 17.9022 33.8409
rfemur -30.2187 -7.32357 22.3457
rtibia 25.6824
rfoot -8.72095 11.9353
rtoes 28.8727
lfemur 10.6231 -4.41095 -11.4954
ltibia -3.18055e-014
lfoot 20.198 -9.31697
ltoes -15.479
443
root -13.0556 16.8406 -14.4402 -167.838 -71.2187 -178.32
lowerback -12.6373 -2.91701 -2.3724
upperback 0.912341 -3.72721 2.16494
thorax 8.38157 -1.97868 2.90841
lowerneck -2.62353 -0.76766 -6.5129
upperneck -5.52437 -0.690567 11.9066
head -1.10847 -0.466291 4.65602
rclavicle -2.93207e-015 -7.95139e-015
rhumerus -31.6288 -22.5044 -77.2762
rradius 24.7064
rwrist 34.9556
rhand 0.122728 -4.3742
rfingers 7.12502
rthumb 25.7079 -32.658
lclavicle -2.93207e-015 -7.95139e-015
lhumerus -21.2518 21.3567 88.3166
lradius 15.6495
lwrist -49.1821
lhand -8.24804 4.53719
lfingers 7.12502
lthumb 17.6702 33.7543
rfemur -30.3647 -7.36241 22.441
rtibia 25.6316
rfoot -8.4658 12.0905
rtoes 29.6321
lfemur 10.5122 -4.18422 -11.3588
ltibia -1.27222e-014
lfoot 20.7023 -9.12156
ltoes -14.0279
444
root -13.0528 16.844 -14.4351 -167.169 -70.9487 -178.937
lowerback -12.6613 -2.906 -2.5572
upperback 0.932188 -3.67585 2.08593
thorax 8.41962 -1.95991 2.93748
lowerneck -2.56572 -0.720849 -6.38189
upperneck -5.57422 -0.631587 11.7946
head -1.13979 -0.440705 4.60017
rclavicle 2.43511e-015 -3.10104e-014
rhumerus -31.7433 -22.5242 -77.4318
rradius 24.6765
rwrist 34.9915
rhand 0.682771 -4.36439
rfingers 7.12502
rthumb 26.2442 -32.5695
lclavicle 2.43511e-015 -3.10104e-014
lhumerus -21.5192 22.2978 87.6485
lradius 15.4364
lwrist -49.9983
lhand -8.32177 4.75447
lfingers 7.12502
lthumb 17.5992 33.9779
rfemur -30.4854 -7.01259 22.1248
rtibia 25.6041
rfoot -8.20516 11.8764
rtoes 31.3471
lfemur 10.4267 -3.89362 -11.5865
ltibia 1.59028e-014
lfoot 21.138 -9.15435
ltoes -13.7334
445
root -13.0505 16.8483 -14.4315 -166.716 -70.7553 -179.338
lowerback -12.6641 -2.91074 -2.73726
upperback 0.937127 -3.6569 2.11426
thorax 8.4393 -1.95999 3.07323
lowerneck -2.58804 -0.689862 -6.50841
upperneck -5.54204 -0.58793 11.7073
head -1.13111 -0.411892 4.59431
rclavicle -5.29761e-014 -1.39149e-015
rhumerus -31.839 -22.3855 -77.4854
rradius 24.7313
rwrist 34.6372
rhand 1.22948 -4.42485
rfingers 7.12502
rthumb 26.7675 -32.551
lclavicle -5.29761e-014 -1.39149e-015
lhumerus -21.9718 25.008 86.6117
lradius 15.0663
lwrist -52.6077
lhand -8.43704 4.42933
lfingers 7.12502
lthumb 17.4883 33.6627
rfemur -30.551 -6.59264 21.8599
rtibia 25.5628
rfoot -8.26347 11.4933
rtoes 31.5512
lfemur 10.3247 -3.66615 -11.7181
ltibia -2.54444e-014
lfoot 21.5447 -9.39268
ltoes -13.8112
